<?xml version="1.0" encoding="UTF-8"?>
<svg width="304px" height="233px" viewBox="0 0 304 233" version="1.1" xmlns="http://www.w3.org/2000/svg" xmlns:xlink="http://www.w3.org/1999/xlink">
    <!-- Generator: Sketch 53 (72520) - https://sketchapp.com -->
    <title>sellerlab2</title>
    <desc>Created with Sketch.</desc>
    <g id="Page-1" stroke="none" stroke-width="1" fill="none" fill-rule="evenodd">
        <g id="a" transform="translate(-3.000000, -509.000000)">
            <g id="sellerlab2" transform="translate(3.000000, 509.000000)">
                <g id="Layer_4">
                    <path d="M0,21.459849 L0,232.82854 L304,230.301158 C304,230.301158 300.019252,152.283766 245.223885,143.370806 C190.428518,134.457847 212.154151,49.2032052 174.097384,45.4340432 C136.040616,41.6648812 122.995788,74.980471 98.7308706,52.4482729 C86.9379674,41.4925754 94.408184,5.77422282 57.2815028,3.74626587 C20.1548215,1.71830892 0,21.459849 0,21.459849 Z" id="Path" fill="#FCEEB3" fill-rule="nonzero"></path>
                    <path d="M1.13086678,46.2328509 L1.13086678,231.031167 L180.823532,231.031167 C180.823532,231.031167 232.766634,192.845861 229.30317,167.120961 C223.657694,125.172406 203.910339,141.993215 181.97802,113.513131 C175.26073,104.789369 180.150326,70.6777139 151.288126,67.3963258 C122.425925,64.1149378 99.5753299,97.5496216 81.1714326,77.8376435 C72.2278413,68.2506692 72.72684,32.5190137 44.5850872,30.7452904 C16.4433345,28.9715671 1.13086678,46.2328509 1.13086678,46.2328509 Z" id="Path" fill="#FFE783" fill-rule="nonzero"></path>
                    <polygon id="Rectangle-Copy-3" fill="#FCEEB3" fill-rule="nonzero" transform="translate(165.763567, 145.724879) rotate(-14.100000) translate(-165.763567, -145.724879) " points="162.542791 93.2622582 163.133568 93.2611624 168.984344 198.187499 168.393567 198.188595"></polygon>
                    <rect id="Rectangle" fill="#4A76DD" fill-rule="nonzero" x="152.83827" y="200.097433" width="50.0474986" height="31.0401574"></rect>
                    <rect id="Rectangle" fill="#0E43AD" fill-rule="nonzero" x="174.097384" y="200.097433" width="28.7883841" height="31.0401574"></rect>
                    <rect id="Rectangle" fill="#FFE061" fill-rule="nonzero" x="111.194026" y="123.103062" width="17.5240061" height="18.8931092"></rect>
                    <path d="M129.013298,142.294748 L97.9602277,142.294748 L97.9602277,122.807441 L129.013298,122.807441 L129.013298,142.294748 Z M98.5507587,141.703506 L128.422767,141.703506 L128.422767,123.398682 L98.5507587,123.398682 L98.5507587,141.703506 Z" id="Shape" fill="#FFF1B4" fill-rule="nonzero"></path>
                    <path d="M98.7308706,40.1667173 L129.143215,40.1667173 L129.143215,72.0937363 L83.3770658,72.0937363 L83.6723312,49.9221953 C90.7587027,49.6265748 97.2545432,47.2616104 98.7308706,40.1667173 Z" id="Path" fill="#4A76DD" fill-rule="nonzero"></path>
                    <rect id="Rectangle" fill="#5B8AE8" fill-rule="nonzero" x="91.7980372" y="50.4690933" width="27.2530036" height="3.95835912" rx="1.97917956"></rect>
                    <rect id="Rectangle" fill="#5B8AE8" fill-rule="nonzero" x="91.7980372" y="57.126468" width="27.2530036" height="3.95835912" rx="1.97917956"></rect>
                    <rect id="Rectangle" fill="#5B8AE8" fill-rule="nonzero" x="91.7980372" y="63.7867989" width="27.2530036" height="3.95835912" rx="1.97917956"></rect>
                    <polygon id="Path" fill="#F9D643" fill-rule="nonzero" points="20.9874702 49.0353337 47.8891079 49.0353337 48.5357393 155.166066 5.74881886 155.166066 5.74881886 67.830888"></polygon>
                    <path d="M36.7221675,110.524407 L12.3037125,110.524407 L5.33249454,90.4222102 L37.026291,90.4222102 L36.7221675,110.524407 Z M12.7229895,109.933166 L36.1404945,109.933166 L36.43576,91.0134513 L6.16219053,91.0134513 L12.7229895,109.933166 Z" id="Shape" fill="#FFFFFF" fill-rule="nonzero"></path>
                    <path d="M39.3382197,146.885735 L33.5687322,146.885735 L19.4402791,109.933166 L24.5454192,109.933166 L39.3382197,146.885735 Z M33.9761986,146.294494 L38.4671865,146.294494 L24.1468108,110.524407 L20.3083596,110.524407 L33.9761986,146.294494 Z" id="Shape" fill="#FFFFFF" fill-rule="nonzero"></path>
                    <path d="M70.3853847,155.692271 L31.4103416,155.157198 L31.4103416,146.288581 L70.3853847,146.288581 L70.3853847,155.692271 Z M32.0008725,154.574825 L69.7948538,155.095117 L69.7948538,146.885735 L32.0008725,146.885735 L32.0008725,154.574825 Z" id="Shape" fill="#FFFFFF" fill-rule="nonzero"></path>
                    <path d="M40.2683059,231.876642 L36.1345892,231.876642 L36.1345892,154.660555 L40.2683059,154.660555 L40.2683059,231.876642 Z M36.7251202,231.285401 L39.677775,231.285401 L39.677775,155.251796 L36.7251202,155.251796 L36.7251202,231.285401 Z" id="Shape" fill="#FFFFFF" fill-rule="nonzero"></path>
                    <path d="M128.847949,103.133894 L138.479509,103.133894 C138.479509,103.133894 134.76507,100.434878 137.762014,98.8946951 C140.758959,97.3545121 146.259755,94.649584 143.708661,91.1021375 C141.157567,87.5546909 132.488573,87.8266618 133.882226,84.1668795 C135.275879,80.5070971 143.900583,80.7022066 143.708661,78.1983006 C143.516738,75.6943946 126.465157,66.607019 124.055791,73.2703061 C121.646424,79.9335932 116.015712,88.2139247 124.920919,90.0438159 C133.826125,91.8737071 137.829925,95.6872122 133.882226,96.591811 C125.050835,98.604987 128.847949,103.133894 128.847949,103.133894 Z" id="Path" fill="#FFF3C2" fill-rule="nonzero"></path>
                    <path d="M55.9173763,231.876642 L51.7836596,231.876642 L51.7836596,154.870446 L55.9173763,154.870446 L55.9173763,231.876642 Z M52.3741905,231.285401 L55.3268453,231.285401 L55.3268453,155.461687 L52.3741905,155.461687 L52.3741905,231.285401 Z" id="Shape" fill="#FFFFFF" fill-rule="nonzero"></path>
                    <rect id="Rectangle" fill="#F9D643" fill-rule="nonzero" x="135.048524" y="118.210542" width="3.54318574" height="112.927049"></rect>
                    <polygon id="Path" fill="#FFFFFF" fill-rule="nonzero" points="99.3214016 49.0353337 148.040206 49.0353337 156.307639 58.4951912 156.307639 89.5353486 98.7308706 89.5353486"></polygon>
                    <path d="M86.0344551,46.6703693 C82.1207602,46.6703693 78.9480836,43.4938774 78.9480836,39.5754762 C78.9480836,35.6570749 82.1207602,32.480583 86.0344551,32.480583 C89.94815,32.480583 93.1208265,35.6570749 93.1208265,39.5754762 C93.1208265,43.4938774 89.94815,46.6703693 86.0344551,46.6703693 Z M86.0344551,33.0718241 C82.4469014,33.0718241 79.5386145,35.9836083 79.5386145,39.5754762 C79.5386145,43.167344 82.4469014,46.0791282 86.0344551,46.0791282 C89.6220087,46.0791282 92.5302956,43.167344 92.5302956,39.5754762 C92.5302956,35.9836083 89.6220087,33.0718241 86.0344551,33.0718241 Z" id="Shape" fill="#4A76DD" fill-rule="nonzero"></path>
                    <path d="M169.446953,59.9732939 C167.082429,59.9732939 165.165603,58.0541634 165.165603,55.686796 C165.165603,53.3194285 167.082429,51.400298 169.446953,51.400298 C171.811477,51.400298 173.728302,53.3194285 173.728302,55.686796 C173.725049,58.0528131 171.810128,59.9700372 169.446953,59.9732939 Z M169.446953,51.9915391 C167.40857,51.9915391 165.756134,53.645962 165.756134,55.686796 C165.756134,57.72763 167.40857,59.3820528 169.446953,59.3820528 C171.485335,59.3820528 173.137771,57.72763 173.137771,55.686796 C173.136143,53.6466376 171.484661,51.9931693 169.446953,51.9915391 L169.446953,51.9915391 Z" id="Shape" fill="#FFFFFF" fill-rule="nonzero"></path>
                    <rect id="Rectangle" fill="#4A76DD" fill-rule="nonzero" x="150.431856" y="131.061167" width="58.1672992" height="31.0401574"></rect>
                    <g id="Group" transform="translate(78.248521, 0.000000)" fill-rule="nonzero">
                        <rect id="Rectangle-Copy" fill="#FFDD55" x="0" y="0" width="30.5798817" height="17.992278"></rect>
                        <rect id="Rectangle-Copy-2" fill="#FFE783" x="7.19526627" y="0" width="23.3846154" height="17.992278"></rect>
                    </g>
                    <rect id="Rectangle" fill="#0E43AD" fill-rule="nonzero" x="163.423537" y="131.061167" width="45.1756182" height="31.0401574"></rect>
                    <rect id="Rectangle" fill="#F9D643" fill-rule="nonzero" x="65.3658716" y="112.298131" width="80.9027411" height="5.91241094"></rect>
                    <polygon id="Path" fill="#4A76DD" fill-rule="nonzero" points="163.423537 131.061167 150.431856 131.061167 142.459688 121.89693 155.451369 121.89693"></polygon>
                    <polygon id="Path" fill="#0E43AD" fill-rule="nonzero" points="163.423537 131.061167 208.599155 131.061167 216.571323 121.89693 171.395705 121.89693"></polygon>
                    <path d="M126.223039,103.133894 L140.661521,103.133894 L140.661521,105.841778 C140.661521,109.407523 137.774386,112.298131 134.212923,112.298131 L132.67459,112.298131 C129.113128,112.298131 126.225992,109.407523 126.225992,105.841778 L126.225992,103.133894 L126.223039,103.133894 Z" id="Path" fill="#4A76DD" fill-rule="nonzero"></path>
                    <polygon id="Rectangle" fill="#F9D643" fill-rule="nonzero" transform="translate(104.370575, 28.275165) rotate(-100.870000) translate(-104.370575, -28.275165) " points="98.5233075 27.9829418 110.218005 27.9764379 110.217842 28.5673884 98.5231444 28.5738922"></polygon>
                    <path d="M146.12098,96.1868109 L162.159801,115.254336" id="Path" fill="#FFFFFF" fill-rule="nonzero"></path>
                    <polygon id="Rectangle" fill="#FFFFFF" fill-rule="nonzero" transform="translate(162.166720, 103.380460) rotate(-40.100000) translate(-162.166720, -103.380460) " points="161.878683 90.9220064 162.469509 90.9216566 162.454756 115.838914 161.86393 115.839264"></polygon>
                    <rect id="Rectangle" fill="#FFE783" fill-rule="nonzero" x="108.787613" y="55.7193142" width="33.9378141" height="3.95835912" rx="1.97917956"></rect>
                    <rect id="Rectangle" fill="#FFE783" fill-rule="nonzero" x="109.319091" y="62.3382583" width="33.4063362" height="3.95835912" rx="1.97917956"></rect>
                    <rect id="Rectangle" fill="#FFE783" fill-rule="nonzero" x="130.129402" y="68.9542461" width="12.3302864" height="3.95835912" rx="1.97917956"></rect>
                    <rect id="Rectangle" fill="#FFE783" fill-rule="nonzero" x="130.129402" y="74.3818394" width="12.3302864" height="3.95835912" rx="1.97917956"></rect>
                    <ellipse id="Oval" fill="#FFE783" fill-rule="nonzero" cx="234.995889" cy="105.720574" rx="13.8774775" ry="13.8941657"></ellipse>
                    <g id="Group-3" transform="translate(184.378698, 212.209954)" fill="#4A76DD">
                        <g id="Group-2" transform="translate(0.462187, 0.083232)">
                            <path d="M3.93376891,0.484517099 C3.67642435,0.372302285 3.40119941,0.314971887 3.12345437,0.315725507 C2.95833092,0.318269569 2.79376458,0.336928902 2.63178666,0.371473188 L1.97142356,1.62424748 C2.24235721,1.46262048 2.54829081,1.38087749 2.85815566,1.38731983 C3.04510642,1.38673534 3.23113784,1.4154271 3.4103807,1.4724899 L3.93376891,0.484517099 Z" id="Path"></path>
                            <path d="M0.00907821663,3.70929168 C0.0210051567,5.45427468 1.46927231,6.86173916 3.24943725,6.85835864 C5.08464793,6.8416672 6.5604886,5.37325014 6.55017565,3.57422326 C6.54511586,2.56584374 6.08342062,1.61175634 5.28995002,0.969982827 L4.74034301,1.92608508 C5.53644797,2.59844251 5.75578613,3.71947463 5.26994116,4.63284866 C4.78409618,5.5462227 3.72085884,6.01169584 2.70272469,5.75674665 C1.68459054,5.50179747 0.979357223,4.59348468 0.999919012,3.5635999 L0.999919012,3.5635999 C0.99869391,3.41552758 1.01165234,3.26766949 1.03862373,3.12197172 L0.00907821663,3.70929168 Z" id="Path"></path>
                        </g>
                    </g>
                    <path d="M188.969906,141.777412 C188.642913,141.643365 188.292768,141.575059 187.93943,141.57639 C187.729236,141.579005 187.519717,141.600774 187.313467,141.641426 L186.47196,143.119529 C186.816145,142.926772 187.205602,142.829801 187.599874,142.838689 C187.838718,142.837876 188.076418,142.871731 188.305559,142.9392 L188.969906,141.777412 Z" id="Path" fill="#1C58B7"></path>
                    <path d="M183.914961,145.771245 C183.932792,147.881002 185.646114,149.58187 187.753412,149.581794 C189.929058,149.562282 191.678786,147.784008 191.66568,145.605698 C191.659864,144.384392 191.112497,143.228775 190.171637,142.451426 L189.522053,143.610259 C190.465929,144.423287 190.726501,145.779933 190.151122,146.885467 C189.575744,147.991001 188.315869,148.554422 187.109538,148.245675 C185.903206,147.936929 185.067952,146.837283 185.09307,145.590917 L185.09307,145.590917 C185.092418,145.411487 185.108232,145.232376 185.140313,145.055843 L183.914961,145.771245 Z" id="Path" fill="#1C58B7"></path>
                    <path d="M174.008804,156.026322 L168.24227,156.026322 L168.24227,155.878512 C168.292085,154.320162 169.568262,153.082689 171.125537,153.082689 C172.682812,153.082689 173.958989,154.320162 174.008804,155.878512 L174.008804,156.026322 Z M168.540488,155.730701 L173.707634,155.730701 C173.641691,154.350154 172.504526,153.264768 171.124061,153.264768 C169.743596,153.264768 168.60643,154.350154 168.540488,155.730701 Z" id="Shape" fill="#1C58B7" fill-rule="nonzero"></path>
                    <path d="M170.583725,159.094863 C170.204442,159.093244 169.897374,158.785806 169.895756,158.406067 L169.895756,158.054279 L170.191022,158.054279 L170.191022,158.406067 C170.191022,158.623212 170.366841,158.799243 170.583725,158.799243 C170.800609,158.799243 170.976428,158.623212 170.976428,158.406067 L170.976428,155.878512 L171.271693,155.878512 L171.271693,158.406067 C171.271693,158.786479 170.963679,159.094863 170.583725,159.094863 L170.583725,159.094863 Z" id="Path" fill="#1C58B7" fill-rule="nonzero"></path>
                    <path d="M136.917555,110.432765 L136.72268,110.208093 C138.269871,108.857108 139.01394,106.840975 138.940123,104.224734 L139.235389,104.224734 C139.312158,106.926705 138.532657,109.016743 136.917555,110.432765 Z" id="Path" fill="#638EE5" fill-rule="nonzero"></path>
                    <ellipse id="Oval" fill="#FFF3C2" fill-rule="nonzero" transform="translate(127.947851, 94.494286) rotate(-77.240000) translate(-127.947851, -94.494286) " cx="127.947851" cy="94.4942857" rx="2.00714602" ry="2.56600758"></ellipse>
                </g>
                <g id="Layer_2-2" transform="translate(16.000000, 30.426117)" fill-rule="nonzero">
                    <path d="M98.7969739,196.697188 C98.782247,196.643882 98.7645747,196.590577 98.7498478,196.537271 C100.517077,197.37239 102.578845,197.407927 104.53458,197.307239 C106.490314,197.206551 108.525573,196.990368 110.46658,197.402004 C112.407588,197.813641 114.263179,199.098895 114.943562,200.973471 L113.491488,200.973471 L113.491488,200.88759 C111.303069,199.172931 108.313506,199.075204 105.538955,198.998207 C102.764404,198.92121 99.7542233,198.702066 97.6924554,196.833413 L97.6924554,196.717917 C98.0606282,196.706072 98.4288011,196.700149 98.7969739,196.697188 Z" id="Path" fill="#F99680"></path>
                    <path d="M113.491488,200.88759 L113.491488,200.973471 L95.9370072,200.973471 C95.3125861,199.591477 94.6871832,198.209484 94.0607984,196.82749 L94.1197061,196.791953 L94.1403238,196.82749 C95.0975732,196.82749 96.0577679,196.78603 97.0150173,196.753454 L97.6924554,196.732725 L97.6924554,196.84822 C99.7542233,198.713911 102.76735,198.936017 105.538955,199.013014 C108.31056,199.090011 111.303069,199.172931 113.491488,200.88759 Z" id="Path" fill="#EE572E"></path>
                    <path d="M105.07653,32.892437 C105.491829,32.7117906 105.960145,33.1885785 105.9248,33.6505592 C105.889456,34.11254 105.586081,34.4827168 105.285652,34.8351252 C103.801179,36.517209 102.315725,38.1953442 100.829288,39.8695308 C102.596518,41.3768911 103.659801,43.7697144 104.069209,46.0648111 C102.856694,47.996227 101.119044,49.5377935 99.0620583,50.5069337 C98.0753551,50.9807601 96.8206221,50.8297279 95.780902,51.1673292 C94.7411818,51.5049305 93.7780417,52.1890174 93.3568519,53.1899757 C91.8172045,51.4618256 90.1651387,49.8383613 88.4115543,48.3302936 C88.3879912,46.8495861 89.0006308,45.422184 89.7075227,44.1191614 C90.4144146,42.8161388 91.2479579,41.5397689 91.7015468,40.1182897 C92.1551358,38.6968104 92.187535,37.0413794 91.3598824,35.7975851 C92.1433542,35.297106 92.7972292,35.2586076 93.5483018,35.7975851 C94.2942826,36.372253 94.7553384,37.2442746 94.811871,38.1874471 C94.8622168,39.1228332 94.6585909,40.0543746 94.2227945,40.8823348 C97.0190221,37.2368699 100.786838,34.4641732 105.088311,32.8865141 L105.07653,32.892437 Z" id="Path" fill="#F4B77F"></path>
                    <path d="M98.7498478,196.537271 C98.7645747,196.590577 98.782247,196.643882 98.7969739,196.697188 C98.4288011,196.697188 98.0606282,196.697188 97.6924554,196.717917 L97.0150173,196.738647 L97.0150173,196.738647 C96.5315006,195.491025 95.6793357,194.422347 94.573295,193.676544 L97.9310314,193.712081 L97.9310314,193.774271 C98.2059338,194.696258 98.4788726,195.617258 98.7498478,196.537271 Z" id="Path" fill="#D8E1E5"></path>
                    <path d="M94.573295,193.676544 L92.3053503,193.652853 L91.1271972,193.652853 C91.1271972,193.587702 91.1271972,193.516628 91.1271972,193.448515 C89.1459364,190.63912 87.2422373,187.776418 85.4161,184.860412 L85.4396631,184.845605 C84.5560483,180.673958 83.6724334,176.502311 82.7888186,172.330665 C82.0053468,168.622973 81.2130388,164.847169 81.5723755,161.077287 C81.9317122,157.307406 83.6341435,153.466451 86.8210476,151.452688 L86.8387199,151.452688 C90.7658969,165.541127 94.6999465,179.627591 98.6408686,193.712081 L97.9339767,193.712081 L94.573295,193.676544 Z" id="Path" fill="#664640"></path>
                    <path d="M97.0150173,196.732725 L97.0150173,196.732725 C96.0577679,196.7653 95.0975732,196.80676 94.1403238,196.80676 L94.1197061,196.771223 C93.5168844,195.736702 92.9120991,194.702181 92.3053503,193.66766 L92.3053503,193.632123 L94.573295,193.655814 C95.6816886,194.405512 96.5340901,195.479657 97.0150173,196.732725 L97.0150173,196.732725 Z" id="Path" fill="#F2F2F2"></path>
                    <path d="M93.3362343,53.1958985 L93.8428401,53.7585674 L93.8428401,53.7585674 L92.2317157,55.7042171 C92.1603466,55.6398498 92.0925031,55.5716371 92.0284843,55.4998794 C90.3165341,53.3390963 88.1405624,51.595728 85.6635122,50.4003227 C86.5235639,49.6718146 87.3737978,48.9294866 88.2142136,48.1733386 L88.3968274,48.3302936 C90.1485793,49.8404659 91.7986771,51.4659088 93.3362343,53.1958985 Z" id="Path" fill="#351F06"></path>
                    <path d="M11.9994894,62.4562434 L11.8875648,62.4562434 L11.6754973,62.3762852 C11.7020057,61.440478 11.7638587,60.5105937 11.8698925,59.5895936 C11.9081825,59.2579151 11.9494179,58.9262367 11.9994894,58.5975196 C12.2469541,56.882997 12.6320942,55.1914371 13.151134,53.5394227 C13.3474929,52.9116027 13.561524,52.2897055 13.7932275,51.6737312 C14.4513343,52.0371444 15.2298141,52.110055 15.9433569,51.8751074 C16.6732373,51.6241998 17.3735225,51.2935026 18.0316333,50.8889562 C26.4794648,46.3348598 36.9508373,48.4196979 43.0349875,55.8670949 C45.0290116,58.3043395 47.6297846,59.506674 50.1392507,61.4079025 C51.8446273,62.6990794 53.5588401,63.9961792 55.458612,64.9823304 C57.267077,65.9181376 59.2669919,66.5696489 61.2963606,66.5696489 L61.4848651,66.3179286 L61.6203527,66.4215781 C65.885409,64.2248745 70.0269894,61.793825 74.0263049,59.1394585 L74.0469226,59.1720341 C78.3577707,56.2561233 82.887689,53.681798 87.5956833,51.472355 C89.2789159,52.5539158 90.771901,53.9089193 92.0137574,55.4821109 C92.0777762,55.5538686 92.1456197,55.6220814 92.2169888,55.6864486 L90.7442974,57.4632976 C89.586762,57.6765195 88.9770678,58.4168733 88.1759237,59.2608766 L85.5633692,62.0534909 C83.8255933,63.9102982 82.1349436,65.8322565 80.3412055,67.6357583 C77.9112648,70.2358807 75.4489248,72.8626559 72.4681974,74.7994213 C68.9647878,77.0678124 64.8946982,78.2936376 60.7279017,78.3353509 C56.1713946,78.3768107 51.6914674,76.9819842 47.6032762,74.9563763 C43.5150849,72.9307684 39.7715034,70.2773405 36.0485396,67.6387197 C34.8026427,66.7502952 33.6716157,65.8144881 32.3079035,65.1304012 L32.2254328,65.2340507 L32.6731309,65.6012662 L32.6466225,65.6338417 C37.0775253,70.8794946 39.9318688,77.2848537 40.8760219,84.101226 C41.2500855,86.855342 41.314884,89.6805319 42.1778811,92.3221142 C43.3516378,95.8727976 45.8704459,98.8149882 49.1878921,100.510427 C49.2939259,100.563732 49.3322158,100.608153 49.4382496,100.658498 C45.6062696,102.571017 42.1864098,105.223584 39.3738767,108.464788 C38.398955,109.593087 37.5006133,110.789498 36.5227462,111.914836 C36.2576618,112.210978 35.9837412,112.507119 35.7039298,112.803261 C35.6450222,112.86545 35.5861145,112.92764 35.5242615,112.986868 C34.2489107,114.281007 32.758547,115.406344 31.0296074,115.948283 C29.2211424,116.505029 27.4656942,116.46357 25.9753306,115.293811 L26.0578013,115.210891 L26.1255451,115.279004 C27.1240298,114.932518 27.848594,114.020402 28.2049853,113.019444 C28.5171329,112.0025 28.6370164,110.935756 28.5584312,109.874421 C28.4700698,107.081807 27.5069296,104.395803 27.4509673,101.665379 C27.395005,98.934954 25.7485361,96.1571466 24.3671516,93.8946256 C23.2950322,92.1473907 22.1522237,90.4327314 21.2715543,88.5640785 C20.4232841,86.7694609 20.3260864,85.0103804 19.7399553,83.1713417 C18.4265074,79.0548584 16.8715645,75.0202605 15.0833051,71.0887683 C13.7991182,68.3109609 12.3853345,65.4472726 11.9994894,62.4562434 Z" id="Path" fill="#4A76DD"></path>
                    <path d="M90.756079,57.4899504 C86.8603194,62.2025488 82.9645598,66.9102116 79.0688002,71.6129387 C76.674204,74.5062412 74.2560447,77.423235 71.2929897,79.7242545 C68.3299346,82.025274 64.7424584,83.6895893 60.9988769,83.6925507 C57.782519,83.6925507 54.8135732,82.5079847 52.0272411,80.8377466 C49.7769686,79.4814185 47.6533477,77.7993348 45.6298697,76.152788 L32.6937486,65.6279189 L32.2460504,65.2607034 L32.3285212,65.1570539 C33.6922334,65.8411408 34.8232604,66.7828708 36.0691573,67.6653725 C39.7921211,70.3039933 43.5386479,72.9544597 47.6238938,74.983029 C51.7091397,77.0115984 56.1920123,78.4034634 60.7485194,78.3620036 C64.9153159,78.3202903 68.9854055,77.0944651 72.4888151,74.826074 C75.4695424,72.8893086 77.9318824,70.2625335 80.3618232,67.662411 C82.1555613,65.8589093 83.846211,63.9369509 85.5839868,62.0801437 L88.1965413,59.2875293 C88.9770678,58.443526 89.5985435,57.7031722 90.756079,57.4899504 Z" id="Path" fill="#0E43AD"></path>
                    <path d="M49.4235227,100.658498 C49.7200246,100.508452 50.0204536,100.363343 50.3248098,100.22317 L50.3778267,100.338665 C55.9504909,101.925983 60.5511788,105.915009 64.3124326,110.342325 C68.0736863,114.76964 71.1869559,119.727049 74.9982812,124.112905 C78.8096065,128.49876 83.8815556,132.517401 89.5042913,133.915189 L89.5042913,133.915189 C89.9598438,134.807562 90.3967423,135.71178 90.8149866,136.627845 C88.8847791,139.338527 86.9300268,142.039337 84.9507295,144.730276 C80.9567905,150.173357 76.87449,155.573004 72.703828,160.929217 C66.5185242,168.877655 60.2036236,176.713559 53.8357061,184.395469 C53.5706216,184.351048 53.3114279,184.294781 53.0551796,184.226669 C52.4232634,184.055616 51.8126294,183.813212 51.2349331,183.504084 C49.99441,182.829575 48.9047295,181.906318 48.033302,180.791427 C47.8065076,180.495286 47.5914946,180.199144 47.3912086,179.903003 C48.3278403,177.997826 49.2674174,176.097584 50.2099399,174.202279 L50.2364483,174.202279 C51.5736521,173.906137 52.6487168,172.872604 53.3320456,171.682115 C54.0153744,170.491626 54.3747111,169.147143 54.7693924,167.832275 C55.0168046,167.009002 55.1316745,166.150191 55.4615574,165.439452 C55.6533749,164.997758 55.9659079,164.619855 56.3628445,164.349651 C60.3586785,161.67235 63.4691355,157.857205 65.2961904,153.392415 C66.5303058,150.362888 67.14,147.111254 68.2621908,144.037305 C69.3843817,140.963356 71.449095,137.868678 74.2796078,136.248784 C74.7773775,134.415668 73.5520983,132.481864 71.9439193,131.486828 C70.3357403,130.491793 68.40946,130.198613 66.5656504,129.784015 C60.7691371,128.483953 55.3319605,125.848294 50.3365914,122.61739 C45.4384198,119.445715 40.9349296,115.699525 36.4932924,111.897068 C37.4711595,110.77173 38.3695012,109.575318 39.3444229,108.447019 C42.1629367,105.210665 45.58781,102.564129 49.4235227,100.658498 L49.4235227,100.658498 Z" id="Path" fill="#785549"></path>
                    <path d="M89.5131274,133.909266 L89.5131274,133.909266 C83.8903918,132.511478 78.8184426,128.489876 75.0071174,124.106982 C71.1957921,119.724088 68.0825225,114.763717 64.3212687,110.336402 C60.5600149,105.909086 55.9622724,101.925983 50.3660452,100.338665 L50.3130283,100.22317 C52.6099523,99.1554172 55.0227757,98.3603473 57.5027076,97.8540375 C70.1855258,108.091649 82.1496705,119.445715 89.5131274,133.909266 Z" id="Path" fill="#937067"></path>
                    <path d="M84.9595657,144.724353 C85.5839868,146.963183 86.2093898,149.203 86.8357745,151.443804 L86.8181022,151.443804 C83.6223619,153.457566 81.9287668,157.29556 81.5694301,161.068403 C81.2100934,164.841246 82.0024014,168.61705 82.7858732,172.32178 C83.6714516,176.491453 84.5550665,180.663099 85.4367177,184.83672 L85.4131546,184.851527 C80.6025155,177.195371 76.3566552,169.194885 72.7097188,160.91441 C76.8705628,155.570043 80.9538451,150.173357 84.9595657,144.724353 Z" id="Path" fill="#4F2C23"></path>
                    <path d="M85.6576214,50.4062456 C86.3271494,50.7292242 86.9763517,51.0931739 87.601574,51.4960463 C82.8935798,53.7054893 78.3636615,56.2798146 74.0528133,59.1957254 L74.0321957,59.1631499 C78.0744766,56.4754927 81.9562998,53.5514919 85.6576214,50.4062456 L85.6576214,50.4062456 Z" id="Path" fill="#6995ED"></path>
                    <path d="M71.9527554,131.504597 C73.5609344,132.499632 74.7862136,134.433436 74.288444,136.266552 C71.4579311,137.886446 69.3932178,140.978163 68.271027,144.055074 C67.1488361,147.131984 66.5391419,150.380656 65.3050265,153.4013 C63.4779716,157.86609 60.3675146,161.681235 56.3716806,164.358535 C55.974744,164.62874 55.662211,165.006642 55.4703935,165.448336 L54.7693924,165.092966 C58.1271288,158.380425 61.4878105,151.667885 64.8514376,144.955344 C66.3221654,142.011697 67.7870024,139.059166 69.2459487,136.097751 C68.609746,135.733497 68.4683676,135.44624 67.793875,135.164906 C55.6174084,130.107944 44.6223549,122.555795 35.5095345,112.98983 C35.5713876,112.930601 35.6302952,112.868412 35.6892029,112.806222 C35.9837412,112.510081 36.2429349,112.213939 36.5080193,111.917798 C40.9437657,115.720254 45.447256,119.466445 50.3513183,122.63812 C55.358469,125.869024 60.783864,128.504683 66.5803773,129.804744 C68.4182961,130.216381 70.3416311,130.512523 71.9527554,131.504597 Z" id="Path" fill="#704E45"></path>
                    <path d="M67.793875,135.17379 C68.4683676,135.455124 68.609746,135.742382 69.2459487,136.106636 C67.7870024,139.068051 66.3221654,142.020582 64.8514376,144.964228 L64.7719123,144.922768 L55.1257837,128.821555 L55.1464014,128.786018 C59.1967576,131.231486 63.424538,133.366782 67.793875,135.17379 L67.793875,135.17379 Z" id="Path" fill="#4F2C23"></path>
                    <path d="M56.4718236,195.675499 C60.5603508,195.448389 64.4407823,197.504475 66.5656504,201.023815 C66.0737714,201.100812 65.5789471,201.171886 65.092959,201.237037 L65.0664505,201.13931 C62.2300469,198.394078 57.7501198,197.046635 53.8946137,197.846217 C53.9297326,193.744615 52.122469,189.846008 48.9758245,187.235466 L49.0612406,187.004476 C49.6706313,187.236429 50.3071347,187.388708 50.9551217,187.457573 L50.9551217,187.549376 C53.0930181,190.043163 54.9418398,192.77337 56.4659329,195.687345 L56.4718236,195.675499 Z" id="Path" fill="#F99680"></path>
                    <path d="M47.8212345,186.412193 C48.2125664,186.647398 48.6247151,186.845672 49.0524045,187.004476 L48.9669884,187.235466 C52.119134,189.843119 53.932008,193.742154 53.9005045,197.846217 C57.7560105,197.046635 62.2359377,198.394078 65.0723413,201.13931 L65.0988497,201.237037 C60.7632463,201.82932 56.3216091,201.950738 52.0508041,201.07712 L52.0242957,201.109696 C47.3352463,197.404966 44.3221198,192.225451 41.4562623,186.945248 C42.3689958,185.524692 43.7299044,184.453609 45.3206045,183.903875 L45.3206045,183.948296 L45.3530037,183.995678 C45.9689946,184.99025 46.8160136,185.819521 47.8212345,186.412193 L47.8212345,186.412193 Z" id="Path" fill="#EE572E"></path>
                    <path d="M14.043585,51.0488726 C14.8420377,49.0619211 15.8429109,47.163408 17.0302031,45.3836856 C22.8276045,43.3811629 29.1759938,43.7535013 34.7024997,46.4201809 L37.9247484,48.6590107 L41.4061908,51.0784868 C48.3514034,55.9085547 54.7340478,61.2183719 61.4730836,66.3297743 L61.2845791,66.5814946 C59.2552104,66.5814946 57.2552955,65.9299832 55.4468304,64.9941761 C53.5470586,64.0080249 51.8328458,62.7109251 50.1274692,61.4197481 C47.6180031,59.5185197 45.0172301,58.3161851 43.023206,55.8789406 C36.9390558,48.4315436 26.4676832,46.3467055 18.0198517,50.9008019 C17.361741,51.3053483 16.6614558,51.6360454 15.9315753,51.8869531 C15.2180326,52.1219007 14.4395527,52.04899 13.7814459,51.6855769 C13.8727528,51.472355 13.9581689,51.2591331 14.043585,51.0488726 Z" id="Path" fill="#6995ED"></path>
                    <path d="M57.5144891,97.8510761 C55.0345572,98.3573859 52.6217338,99.1524558 50.3248098,100.220208 C50.0204536,100.358407 49.7200246,100.503517 49.4235227,100.655536 C49.3174889,100.605192 49.2791989,100.560771 49.1731652,100.507465 C45.8710352,98.8127869 43.3631138,95.8817646 42.1896626,92.3458055 C41.3266655,89.7042233 41.2618671,86.8790333 40.8878035,84.1249173 C39.9436504,77.308545 37.0893069,70.9031859 32.658404,65.6575331 L32.6849125,65.6249575 L45.6298697,76.1498266 C47.6533477,77.7963733 49.7769686,79.4784571 52.0272411,80.8347852 L51.9918965,80.8969749 C52.6070175,84.8076277 54.2126846,88.4933303 56.6544374,91.5995289 C58.0652757,93.391185 59.514404,95.2243009 59.4996771,97.522359 C58.8340206,97.6092272 58.1722913,97.7187995 57.5144891,97.8510761 Z" id="Path" fill="#0E43AD"></path>
                    <path d="M54.7841193,165.087043 L55.4851204,165.442413 C55.1552376,166.153153 55.0403676,167.011963 54.7929555,167.835237 C54.3982742,169.150105 54.0418829,170.50051 53.3556087,171.685076 C52.6693345,172.869642 51.588379,173.915022 50.2600114,174.20524 L50.233503,174.20524 C51.7356482,171.156957 53.2525203,168.117558 54.7841193,165.087043 Z" id="Path" fill="#704E45"></path>
                    <path d="M41.8479982,16.9807539 C41.431417,17.3676184 40.9033117,17.6113298 40.3399623,17.6766864 C40.0966244,18.8271587 39.4964068,19.8702955 38.6257495,20.65587 C37.7401215,21.4365318 36.6320999,21.9163517 35.459463,22.0270051 C35.3563746,24.787044 35.2768493,27.3871664 35.1649248,30.1442438 C34.0262544,30.1349552 32.9840265,29.4996226 32.4492819,28.4888128 C32.6112373,27.4393968 32.4817908,26.3653947 32.0752182,25.3852498 C31.78572,24.6714986 31.2836391,24.0653083 30.6378715,23.6498606 C33.4183128,21.3488411 33.8984102,17.0074066 36.7642676,14.8041138 C38.0072191,13.8505382 39.5623812,13.4152102 41.0969256,13.107223 C42.6314701,12.7992358 44.2013591,12.5919368 45.6534328,12.008538 C47.1055065,11.4251393 48.4633279,10.3856826 49.0229506,8.91682071 C49.5825734,7.44795885 49.102476,5.53192331 47.7093099,4.81822229 L47.6474569,4.71753417 C48.0736981,4.45902812 48.4539802,4.13072584 48.7725931,3.74619004 C49.5649011,2.78669156 49.8918386,1.377058 49.3822873,0.245797449 C52.3659601,2.02264648 54.3158035,5.13805511 54.1361351,8.62067921 C54.0065383,11.173419 52.6634437,13.7972327 50.3365914,14.8189209 L50.2364483,14.8603807 C49.3637666,15.1904755 48.4459463,15.3842269 47.5149147,15.4348952 L46.8286405,15.4911621 L42.507764,15.8228406 C42.4039922,16.2649008 42.1747918,16.6671561 41.8479982,16.9807539 L41.8479982,16.9807539 Z" id="Path" fill="#372666"></path>
                    <path d="M53.0640158,184.220746 L53.0640158,184.277013 L51.0022479,187.448688 L50.9551217,187.448688 C50.3006733,187.385397 49.6571453,187.237078 49.0406229,187.007438 C48.6129336,186.848633 48.2007849,186.650359 47.809453,186.415155 C49.5018464,186.488835 50.9713532,185.253943 51.1995885,183.566273 L51.2319877,183.501122 C51.8135524,183.810059 52.4281787,184.051485 53.0640158,184.220746 Z" id="Path" fill="#D8E1E5"></path>
                    <path d="M51.24966,183.498161 L51.2172608,183.563312 C50.9890255,185.250982 49.5195187,186.485874 47.8271252,186.412193 C46.8262479,185.815114 45.9843454,184.982856 45.3736214,183.986794 L45.3883483,183.986794 C46.3923492,183.058442 47.2689397,181.999811 47.9950121,180.83881 L48.048029,180.794389 C48.9203472,181.90607 50.0099654,182.826251 51.24966,183.498161 L51.24966,183.498161 Z" id="Path" fill="#F2F2F2"></path>
                    <path d="M38.8967247,42.0520937 C37.9143421,41.7286751 36.973973,41.2882428 36.0956657,40.7401868 L36.1221742,40.6957656 C38.2487405,42.0165567 41.2117956,41.7589136 43.3265804,40.3463186 C45.6593235,38.7886143 47.055435,36.096688 47.6415661,33.342572 C48.2276973,30.588456 48.1010458,27.7395748 47.971449,24.9262305 C47.8300706,21.8720244 47.6896741,18.8197926 47.5502593,15.7695351 L47.5237508,15.4408181 C48.4547825,15.3901497 49.3726027,15.1963983 50.2452845,14.8663035 L50.2776837,14.9433003 C50.051871,17.3716607 49.9095109,19.806931 49.8506032,22.2491113 C49.770018,23.9113635 49.8687735,25.5775019 50.1451415,27.2183657 C50.4238411,28.8638824 51.1472982,30.4006325 52.2363632,31.6604883 C51.2859833,32.5432698 49.953652,32.8781657 48.7019039,32.5489128 C48.8810894,35.5516654 48.4449997,38.5594242 47.4206624,41.3857753 C47.3902943,41.473024 47.3362142,41.5499691 47.2645571,41.6078814 C46.36327,42.3067754 45.17039,42.5792256 43.9598377,42.6769523 C42.2475572,42.8110957 40.5259082,42.5986203 38.8967247,42.0520937 L38.8967247,42.0520937 Z" id="Path" fill="#FFCDA4"></path>
                    <path d="M26.2816504,37.4145177 C26.0813643,37.4145177 25.8781329,37.4145177 25.6925738,37.4145177 C24.7953032,37.3715035 23.9096005,37.1927997 23.0652924,36.8844244 C25.2900714,35.7660087 26.5281235,33.3184802 26.1167089,30.852022 L24.2022101,31.5361089 C24.832522,30.6299159 24.7235429,29.3772373 24.2787901,28.3673948 C23.8340373,27.3575522 23.100637,26.5076261 22.5115604,25.586626 C20.2125058,22.0061352 19.8211514,17.5148689 21.4659496,13.5869722 C21.6214049,13.5024508 21.7817201,13.4272957 21.9460469,13.3619047 C21.430605,11.6324383 22.069753,9.68678863 23.2979776,8.36599751 C24.5262022,7.0452064 26.2433604,6.29300698 28.01059,5.94059859 C29.7778197,5.5881902 31.5862847,5.61484293 33.3829682,5.64445708 L41.8892336,5.76291369 C43.1307727,5.82760318 44.3756114,5.75210897 45.6004159,5.53784614 C46.3291165,5.38909966 47.0266841,5.11456552 47.6621838,4.72641842 L47.7240369,4.82710653 C49.1172029,5.54080756 49.5943549,7.45684309 49.0376776,8.92570496 C48.4810002,10.3945668 47.1261242,11.4221778 45.6534328,12.008538 C44.1807414,12.5948982 42.6314701,12.7992358 41.0969256,13.107223 C39.5623812,13.4152102 38.0072191,13.8505382 36.7642676,14.8041138 C33.8984102,17.0074066 33.4183128,21.3488411 30.6378715,23.6498606 C30.3910585,23.4966023 30.1230813,23.3808446 29.8426181,23.3063364 C28.4465067,22.9420824 26.8972354,23.7712786 26.2492512,25.0831855 C25.6444601,26.435455 25.803934,28.0095166 26.6674955,29.211398 C27.5401087,30.3878427 28.8283905,31.1828268 30.2667532,31.4324593 C30.471135,32.9216054 30.9085303,34.3688687 31.5627216,35.7205883 L31.5214863,35.7413182 C29.9736518,36.7990606 28.1528488,37.3804846 26.2816504,37.4145177 Z" id="Path" fill="#2F1A5A"></path>
                    <path d="M36.1221742,40.6898428 L36.0956657,40.734264 C35.6481394,40.4564066 35.2182629,40.150789 34.8085335,39.8191868 C34.4331837,39.5161276 34.0770773,39.1897333 33.7423049,38.8419198 L34.7054451,35.9604629 C35.2326686,34.3790673 35.7687282,32.7769418 36.6700154,31.3702696 C38.2516859,28.9063723 40.8701312,27.1798673 42.1572634,24.559015 C43.3125125,22.1426709 43.2022044,19.3078482 41.8627252,16.9896381 C42.1927562,16.677183 42.4250917,16.2748146 42.531327,15.8317249 L46.8315859,15.4911621 L47.5178601,15.4348952 L47.5443685,15.7636123 C47.6818197,18.8138698 47.8222163,21.8661016 47.9655582,24.9203076 C48.0951551,27.7336519 48.2218065,30.5825332 47.6356754,33.3366492 C47.0495442,36.0907652 45.6534328,38.7945371 43.3265804,40.3403958 C41.2117956,41.7559522 38.2487405,42.0106339 36.1221742,40.6898428 Z" id="Path" fill="#F4B77F"></path>
                    <path d="M30.6467076,23.6498606 C31.2924753,24.0653083 31.7945561,24.6714986 32.0840544,25.3852498 C32.490627,26.3653947 32.6200734,27.4393968 32.458118,28.4888128 C32.9928627,29.4996226 34.0350906,30.1349552 35.1737609,30.1442438 C35.2768493,27.3871664 35.3563746,24.787044 35.4682992,22.0270051 C36.640936,21.9163517 37.7489576,21.4365318 38.6345857,20.65587 C39.5063291,19.8707146 40.1076042,18.8275323 40.3517438,17.6766864 C40.9150933,17.6113298 41.4431985,17.3676184 41.8597798,16.9807539 C43.199259,19.2989639 43.3095672,22.1337866 42.1543181,24.5501308 C40.8671858,27.1798673 38.2487405,28.9063723 36.66707,31.3613854 C35.7657828,32.7680575 35.2297232,34.3701831 34.7024997,35.9515787 L33.7393595,38.8330355 C32.8596945,37.9072082 32.1274857,36.8503647 31.5686124,35.6998584 C30.9144211,34.3481388 30.4770258,32.9008755 30.272644,31.4117294 C28.8342813,31.1620969 27.5459995,30.3671128 26.6733863,29.1906681 C25.8098248,27.9887867 25.6503508,26.4147251 26.2551419,25.0624556 C26.8913446,23.7623944 28.4523975,22.9331981 29.8485089,23.2856065 C30.131156,23.3663149 30.400201,23.4890923 30.6467076,23.6498606 L30.6467076,23.6498606 Z" id="Path" fill="#F4AC64"></path>
                    <path d="M33.7423049,38.8419198 C34.0770773,39.1897333 34.4331837,39.5161276 34.8085335,39.8191868 C35.2182629,40.150789 35.6481394,40.4564066 36.0956657,40.734264 C36.973973,41.28232 37.9143421,41.7227522 38.8967247,42.0461709 C38.6021864,44.151737 38.2664128,46.5238304 37.960093,48.6264351 L37.9365299,48.6590107 L34.7142812,46.4201809 L32.4787357,44.865438 C30.1018118,43.2129684 27.6836526,41.5397689 24.9503374,40.6158074 L25.0062996,40.4529296 C25.7901455,39.6333157 26.2444583,38.5509551 26.2816504,37.4145177 C28.1570776,37.3787048 29.9812899,36.7930557 31.5303224,35.7294726 L31.5715578,35.7087427 C32.1304311,36.859249 32.8626399,37.9160925 33.7423049,38.8419198 L33.7423049,38.8419198 Z" id="Path" fill="#EFA765"></path>
                    <path d="M32.4787357,44.865438 L34.7142812,46.4201809 C32.6642933,45.430476 30.4811717,44.748029 28.2344391,44.394573 L28.2550568,44.2642707 C25.0399418,40.8869431 20.1112167,39.8028793 15.7872516,41.5220004 C15.9345207,41.4114409 16.0847352,41.3077914 16.2378952,41.2110518 C18.729689,39.6296562 21.96961,39.6474247 24.7795052,40.5595405 L24.9444466,40.6158074 C27.6865979,41.5397689 30.1018118,43.2129684 32.4787357,44.865438 Z" id="Path" fill="#6995ED"></path>
                    <path d="M28.5437043,109.868498 C28.6222894,110.929833 28.502406,111.996577 28.1902584,113.013521 C27.8338671,114.014479 27.1093029,114.926595 26.1108182,115.273081 L26.0430744,115.204968 C27.2771897,113.928598 27.2212275,111.864492 26.9443615,110.087643 C25.8398429,103.193469 21.5071849,98.393015 18.4263145,92.1325836 C15.8199052,86.826356 13.9687623,81.1779 12.9272849,75.3532059 C12.1762123,71.1598422 11.5459004,66.705874 11.6754973,62.3792466 L11.8875648,62.4592048 L11.9994894,62.4592048 C12.3853345,65.4561568 13.7991182,68.3139224 15.0685782,71.1035753 C16.8597304,75.0339023 18.417624,79.0675118 19.7340645,83.1831873 C20.323141,85.0163032 20.4173933,86.7813066 21.2656635,88.5759241 C22.1492784,90.4356928 23.2891415,92.1503521 24.3612608,93.9064712 C25.7426453,96.1689923 27.3861689,98.9408768 27.4450766,101.677224 C27.5039842,104.413572 28.4553428,107.084768 28.5437043,109.868498 Z" id="Path" fill="#0E43AD"></path>
                    <path d="M12.0554516,45.9552387 L12.1762123,45.771631 C12.4412968,45.3688786 12.712272,44.9631647 12.9920834,44.5663351 C13.4992453,43.8307305 14.0646309,43.1374829 14.6827331,42.4933445 C15.0288902,42.1396933 15.4021379,41.8139231 15.7990331,41.519039 C20.1260773,39.796628 25.0596488,40.8821603 28.2756745,44.2642707 L28.2550568,44.394573 C24.492539,43.7871692 20.6389435,44.1270082 17.0390393,45.3836856 C14.7683705,46.1710489 12.6315768,47.30469 10.7035209,48.7448917 C10.3913104,48.9788435 10.0938267,48.9729207 9.7551077,49.0647245 C10.5994554,48.0885827 11.3684702,47.0490683 12.0554516,45.9552387 L12.0554516,45.9552387 Z" id="Path" fill="#4A76DD"></path>
                    <path d="M26.101982,30.8460992 C26.5133966,33.3125574 25.2753445,35.7600858 23.0505655,36.8785016 C21.9671464,36.4821533 20.9612734,35.8977965 20.0786743,35.1519966 C20.8843408,35.2578174 21.7032415,35.1870995 22.4791612,34.9446976 C23.23907,34.6485561 23.8929449,34.0562731 23.9871972,33.256691 C22.9146908,33.9217555 21.5474816,33.86311 20.5352086,33.1086203 C21.3532803,32.928072 22.0108599,32.3178585 22.2553121,31.5124175 C22.4889693,30.713999 22.4590003,29.8609484 22.169896,29.0810958 C21.8847021,28.3062067 21.5246244,27.5613018 21.0948313,26.8570731 C20.2111923,25.3874204 19.4939442,23.8229373 18.9564834,22.1928444 C18.4675499,20.5462976 18.3114446,18.7664872 18.7797605,17.116979 C19.1591962,15.6301458 20.1134818,14.3572358 21.430605,13.5810494 C19.7858068,17.5089461 20.1771612,22.0002124 22.4762158,25.5807032 C23.0800193,26.5017033 23.8104742,27.3575522 24.2434455,28.3614719 C24.6764168,29.3653916 24.7971775,30.623993 24.1668655,31.530186 L26.101982,30.8460992 Z" id="Path" fill="#241847"></path>
                    <path d="M9.7551077,49.0647245 C10.0938267,48.9729207 10.3913104,48.9788435 10.7035209,48.7448917 C12.6288654,47.3054904 14.762624,46.1718785 17.0302031,45.3836856 C15.8429109,47.163408 14.8420377,49.0619211 14.043585,51.0488726 C12.0024347,52.3815094 9.71092696,53.3824677 7.29276771,53.6401108 C4.9364615,53.8918311 2.47412152,53.3854291 0.568458873,51.9965254 C0.173702901,50.913372 0.0720606781,49.7442557 0.273920597,48.6086666 C1.70861024,48.8882031 3.17639057,48.954059 4.6301417,48.80412 C7.31044222,48.5351794 9.87074501,47.5516934 12.0466155,45.9552387 C11.3624643,47.0487661 10.5964096,48.0882722 9.7551077,49.0647245 L9.7551077,49.0647245 Z" id="Path" fill="#4A76DD"></path>
                    <path d="M14.6827331,42.496306 C14.0646309,43.1404444 13.4992453,43.833692 12.9920834,44.5692965 L12.9744111,44.5692965 C9.69556707,44.4848071 6.58077811,46.0092536 4.62425093,48.6560493 L4.62425093,48.80412 C3.17925114,48.9514378 1.7205936,48.8855906 0.294538276,48.6086666 C0.293123218,48.5849967 0.293123218,48.5612626 0.294538276,48.5375927 C3.73292236,44.1630535 9.17126929,41.8796111 14.6827331,42.496306 L14.6827331,42.496306 Z" id="Path" fill="#4A76DD"></path>
                    <path d="M6.10872384,56.2431946 C3.57783665,56.084166 1.39132697,54.4081842 0.568458873,51.9965254 C2.47412152,53.3854291 4.94529765,53.8918311 7.29276771,53.6401108 C9.71092696,53.3824677 12.0053801,52.3815094 14.043585,51.0488726 C13.9581689,51.2591331 13.8727528,51.472355 13.7932275,51.6855769 C13.5575968,52.3015512 13.3435657,52.9234483 13.151134,53.5512683 C11.9864269,54.6365637 10.5426443,55.3721304 8.98341742,55.6746029 L9.03937969,55.8078666 C8.40050015,56.0709496 7.72276376,56.2260464 7.03357403,56.2668859 C6.72511013,56.2797356 6.41613675,56.2718208 6.10872384,56.2431946 Z" id="Path" fill="#0E43AD"></path>
                    <path d="M12.9744111,44.5544894 L12.9920834,44.5544894 C12.6975451,44.951319 12.4412968,45.3570329 12.1762123,45.7597853 L12.0554516,45.9433931 C9.87958115,47.5398477 7.31927837,48.5233338 4.63897785,48.7922744 L4.63897785,48.6442036 C6.59184695,46.0006284 9.70018442,44.4755473 12.9744111,44.5544894 Z" id="Path" fill="#0E43AD"></path>
                    <path d="M9.03937969,55.7960209 L8.98341742,55.6746029 C10.5413763,55.3755059 11.9850299,54.6441081 13.151134,53.563114 C12.6320942,55.2151284 12.2469541,56.9066884 11.9994894,58.6212109 L11.9611994,58.6212109 C9.99425778,59.0533848 7.98188003,58.1149755 7.03946479,56.3261142 L7.03946479,56.2520789 C7.72649194,56.2115376 8.40218059,56.0574544 9.03937969,55.7960209 Z" id="Path" fill="#4A76DD"></path>
                    <path d="M11.9611994,58.6034424 L11.9994894,58.6034424 C11.9494179,58.9321595 11.9081825,59.263838 11.8698925,59.5955165 C11.7638587,60.5165165 11.7020057,61.4464009 11.6754973,62.382208 C8.98574092,61.2935201 6.93636019,59.0312915 6.10872384,56.2372718 C6.41666247,56.258003 6.7256354,56.258003 7.03357403,56.2372718 L7.03357403,56.3113072 C7.98146342,58.0933076 9.99256747,59.0238624 11.9553086,58.5886353 L11.9611994,58.6034424 Z" id="Path" fill="#0E43AD"></path>
                    <path d="M62.9546111,72.9129999 C60.7131748,72.9129999 51.0758824,67.7394078 42.5578355,63.1699444 C37.7391893,60.5846291 33.5773635,58.3398765 31.7512261,57.5995227 L31.8631507,57.3270725 C33.7040149,58.0822334 37.8717315,60.3181017 42.6962685,62.9093399 C50.7695626,67.2418901 60.7868094,72.6168584 62.9428296,72.6168584 L63.0311911,72.6168584 C66.0884984,72.3680996 87.3718342,53.841487 87.5868471,53.6638021 L87.778297,53.8888697 C86.8946822,54.6558761 66.2063137,72.6642411 63.0547541,72.9189228 L62.9546111,72.9129999 Z" id="Path" fill="#85A5E5"></path>
                </g>
            </g>
        </g>
    </g>
</svg>